<svg width="148" height="37" viewBox="0 0 148 37" fill="none" xmlns="http://www.w3.org/2000/svg">
<path d="M40.992 10.2H48.624C50.448 10.2 52.056 10.552 53.448 11.256C54.856 11.944 55.944 12.92 56.712 14.184C57.496 15.448 57.888 16.92 57.888 18.6C57.888 20.28 57.496 21.752 56.712 23.016C55.944 24.28 54.856 25.264 53.448 25.968C52.056 26.656 50.448 27 48.624 27H40.992V10.2ZM48.432 23.808C50.112 23.808 51.448 23.344 52.44 22.416C53.448 21.472 53.952 20.2 53.952 18.6C53.952 17 53.448 15.736 52.44 14.808C51.448 13.864 50.112 13.392 48.432 13.392H44.88V23.808H48.432ZM66.7001 27.192C65.3401 27.192 64.1161 26.912 63.0281 26.352C61.9561 25.776 61.1161 24.984 60.5081 23.976C59.9001 22.968 59.5961 21.824 59.5961 20.544C59.5961 19.264 59.9001 18.12 60.5081 17.112C61.1161 16.104 61.9561 15.32 63.0281 14.76C64.1161 14.184 65.3401 13.896 66.7001 13.896C68.0601 13.896 69.2761 14.184 70.3481 14.76C71.4201 15.32 72.2601 16.104 72.8681 17.112C73.4761 18.12 73.7801 19.264 73.7801 20.544C73.7801 21.824 73.4761 22.968 72.8681 23.976C72.2601 24.984 71.4201 25.776 70.3481 26.352C69.2761 26.912 68.0601 27.192 66.7001 27.192ZM66.7001 24.12C67.6601 24.12 68.4441 23.8 69.0521 23.16C69.6761 22.504 69.9881 21.632 69.9881 20.544C69.9881 19.456 69.6761 18.592 69.0521 17.952C68.4441 17.296 67.6601 16.968 66.7001 16.968C65.7401 16.968 64.9481 17.296 64.3241 17.952C63.7001 18.592 63.3881 19.456 63.3881 20.544C63.3881 21.632 63.7001 22.504 64.3241 23.16C64.9481 23.8 65.7401 24.12 66.7001 24.12ZM99.6156 13.896C101.232 13.896 102.512 14.376 103.456 15.336C104.416 16.28 104.896 17.704 104.896 19.608V27H101.152V20.184C101.152 19.16 100.936 18.4 100.504 17.904C100.088 17.392 99.4876 17.136 98.7036 17.136C97.8236 17.136 97.1276 17.424 96.6156 18C96.1036 18.56 95.8476 19.4 95.8476 20.52V27H92.1036V20.184C92.1036 18.152 91.2876 17.136 89.6556 17.136C88.7916 17.136 88.1036 17.424 87.5916 18C87.0796 18.56 86.8236 19.4 86.8236 20.52V27H83.0796V14.088H86.6556V15.576C87.1356 15.032 87.7196 14.616 88.4076 14.328C89.1116 14.04 89.8796 13.896 90.7116 13.896C91.6236 13.896 92.4476 14.08 93.1836 14.448C93.9196 14.8 94.5116 15.32 94.9596 16.008C95.4876 15.336 96.1516 14.816 96.9516 14.448C97.7676 14.08 98.6556 13.896 99.6156 13.896ZM114.536 27.192C113.176 27.192 111.952 26.912 110.864 26.352C109.792 25.776 108.952 24.984 108.344 23.976C107.736 22.968 107.432 21.824 107.432 20.544C107.432 19.264 107.736 18.12 108.344 17.112C108.952 16.104 109.792 15.32 110.864 14.76C111.952 14.184 113.176 13.896 114.536 13.896C115.896 13.896 117.112 14.184 118.184 14.76C119.256 15.32 120.096 16.104 120.704 17.112C121.312 18.12 121.616 19.264 121.616 20.544C121.616 21.824 121.312 22.968 120.704 23.976C120.096 24.984 119.256 25.776 118.184 26.352C117.112 26.912 115.896 27.192 114.536 27.192ZM114.536 24.12C115.496 24.12 116.28 23.8 116.888 23.16C117.512 22.504 117.824 21.632 117.824 20.544C117.824 19.456 117.512 18.592 116.888 17.952C116.28 17.296 115.496 16.968 114.536 16.968C113.576 16.968 112.784 17.296 112.16 17.952C111.536 18.592 111.224 19.456 111.224 20.544C111.224 21.632 111.536 22.504 112.16 23.16C112.784 23.8 113.576 24.12 114.536 24.12ZM127.695 15.792C128.143 15.168 128.743 14.696 129.495 14.376C130.263 14.056 131.143 13.896 132.135 13.896V17.352C131.719 17.32 131.439 17.304 131.295 17.304C130.223 17.304 129.383 17.608 128.775 18.216C128.167 18.808 127.863 19.704 127.863 20.904V27H124.119V14.088H127.695V15.792ZM140.748 24.192C141.42 24.192 142.012 24.096 142.524 23.904C143.052 23.696 143.54 23.376 143.988 22.944L145.98 25.104C144.764 26.496 142.988 27.192 140.652 27.192C139.196 27.192 137.908 26.912 136.788 26.352C135.668 25.776 134.804 24.984 134.196 23.976C133.588 22.968 133.284 21.824 133.284 20.544C133.284 19.28 133.58 18.144 134.172 17.136C134.78 16.112 135.604 15.32 136.644 14.76C137.7 14.184 138.884 13.896 140.196 13.896C141.428 13.896 142.548 14.16 143.556 14.688C144.564 15.2 145.364 15.952 145.956 16.944C146.564 17.92 146.868 19.08 146.868 20.424L137.316 22.272C137.588 22.912 138.012 23.392 138.588 23.712C139.18 24.032 139.9 24.192 140.748 24.192ZM140.196 16.728C139.252 16.728 138.484 17.032 137.892 17.64C137.3 18.248 136.988 19.088 136.956 20.16L143.244 18.936C143.068 18.264 142.708 17.728 142.164 17.328C141.62 16.928 140.964 16.728 140.196 16.728Z" fill="black"/>
<ellipse rx="6.53876" ry="7.42951" transform="matrix(0.993444 0.114321 -0.132574 0.991173 13.8808 28.8886)" fill="#55E47D"/>
<path d="M32 25.2293C32 31.7864 23.0692 32.6497 16 32.6497C8.93075 32.6497 0 30.3023 0 23.7453C0 17.1882 8.93075 8.90448 16 8.90448C23.0692 8.90448 32 18.6723 32 25.2293Z" fill="#21A446"/>
<path d="M25.1 7.42039C25.1 11.2077 21.7782 14.3408 17.6 14.3408C13.4218 14.3408 10.1 11.2077 10.1 7.42039C10.1 3.63311 13.4218 0.5 17.6 0.5C21.7782 0.5 25.1 3.63311 25.1 7.42039Z" fill="white" stroke="#31B757"/>
</svg>
